<?xml version="1.0" encoding="UTF-8"?>
<svg id="Layer_2" data-name="Layer 2" xmlns="http://www.w3.org/2000/svg" viewBox="0 0 32.93 15.61">
  <g id="Layer_1-2" data-name="Layer 1">
    <path d="M0,7.85C0,3.14,3.31,0,8.37,0c4.2,0,7.03,2.06,7.68,5.43l-3.83.67c-.37-2.02-1.75-3.16-3.93-3.16-2.75,0-4.41,1.87-4.41,4.87s1.71,4.85,4.5,4.85c2.1,0,3.48-1.08,3.91-3.04l3.81.81c-.94,3.25-3.68,5.18-7.81,5.18C3.08,15.61,0,12.57,0,7.85Z"/>
    <path d="M25.03,15.19h-3.73L16.09.42h3.79l5.15,14.78Z"/>
    <path d="M32.93,15.19h-3.73L23.99.42h3.79l5.15,14.78Z"/>
  </g>
</svg>