<?xml version="1.0" encoding="UTF-8"?>
<svg id="Layer_2" data-name="Layer 2" xmlns="http://www.w3.org/2000/svg" viewBox="0 0 174.87 15.61">
  <g id="Layer_1-2" data-name="Layer 1">
    <path d="M118.8.42h3.79l2.37,9.59c.1.46.17.9.19,1.31h.08c.02-.42.12-.85.25-1.31l2.73-9.59h3.81l2.73,9.59c.12.46.23.9.25,1.31h.08c.02-.42.1-.85.19-1.31l2.37-9.59h3.81l-4.2,14.78h-4.23l-2.66-9.84c-.1-.4-.17-.79-.19-1.19h-.1c-.02.4-.08.79-.19,1.19l-2.66,9.84h-4.23L118.8.42Z"/>
    <path d="M0,7.85C0,3.14,3.31,0,8.37,0c4.2,0,7.03,2.06,7.68,5.43l-3.83.67c-.37-2.02-1.75-3.16-3.93-3.16-2.75,0-4.41,1.87-4.41,4.87s1.71,4.85,4.5,4.85c2.1,0,3.48-1.08,3.91-3.04l3.81.81c-.94,3.25-3.68,5.18-7.81,5.18C3.08,15.61,0,12.57,0,7.85Z"/>
    <path d="M33.95,15.19h-3.75v-6.1h-7.18v6.1h-3.73V.42h3.73v5.89h7.18V.42h3.75v14.78Z"/>
    <path d="M44.79,9.68h-3.16v5.52h-3.73V.42h8.03c4.1,0,5.66,2.06,5.66,4.58,0,1.77-.92,3.5-3.1,4.18l3.54,6.02h-4.12l-3.12-5.52ZM41.63,7.18h3.5c1.85,0,2.56-.92,2.56-2.14s-.71-2.04-2.56-2.04h-3.5v4.18Z"/>
    <path d="M54.37,15.19V.42h3.73v14.78h-3.73Z"/>
    <path d="M60.81,12.01l2.75-1.91c.96,1.67,2.66,2.71,5.1,2.71,2,0,3.16-.54,3.16-1.73,0-1.02-.65-1.44-2.31-1.69l-3.06-.46c-3.04-.48-4.6-1.87-4.6-4.43,0-2.81,2.48-4.5,6.64-4.5,3.16,0,5.62.98,7.01,3l-2.44,2.04c-.92-1.48-2.6-2.33-4.79-2.33-1.81,0-2.87.56-2.87,1.56s.6,1.37,2.37,1.67l2.98.44c3.25.52,4.75,1.77,4.75,4.37,0,3.02-2.54,4.87-7.01,4.87-3.71,0-6.45-1.35-7.68-3.6Z"/>
    <path d="M99.47,15.19h-3.75v-6.1h-7.18v6.1h-3.73V.42h3.73v5.89h7.18V.42h3.75v14.78Z"/>
    <path d="M101.71,7.8c0-4.77,3.31-7.8,8.41-7.8s8.41,3.04,8.41,7.8-3.31,7.8-8.41,7.8-8.41-3.04-8.41-7.8ZM114.63,7.8c0-3.04-1.75-4.93-4.52-4.93s-4.52,1.89-4.52,4.93,1.75,4.93,4.52,4.93,4.52-1.89,4.52-4.93Z"/>
    <path d="M166.97,15.19h-3.73l-5.21-14.78h3.79l5.15,14.78Z"/>
    <path d="M174.87,15.19h-3.73l-5.21-14.78h3.79l5.15,14.78Z"/>
    <path d="M155.79,12.47v2.73h-12.26V.42h12.11v2.71h-8.39v3.23h8.03v2.62h-8.03v3.5h8.53Z"/>
  </g>
</svg>